<svg xmlns="http://www.w3.org/2000/svg" width="1280" height="720" viewBox="0 0 1280 720" role="img" aria-labelledby="poster-title">
  <title id="poster-title">司南基金 Demo：多维分析功能示意</title>
  <rect width="1280" height="720" fill="#f3f5f8"/>
  <text x="72" y="46" font-family="sans-serif" font-size="16" font-weight="600" letter-spacing="2" fill="#626a78">AURELIUS / FEATURE DEMO</text>
  <text x="72" y="104" font-family="sans-serif" font-size="42" font-weight="700" fill="#17191f">司南基金</text>
  <rect x="1084" y="37" width="124" height="38" rx="19" fill="white" stroke="#dde2eb"/>
  <circle cx="1107" cy="56" r="4" fill="#5f61e8"/>
  <text x="1122" y="62" font-family="sans-serif" font-size="17" fill="#626a78">功能示意</text>
  <text x="1208" y="106" text-anchor="end" font-family="sans-serif" font-size="15" fill="#626a78">15 秒 · 非实际操作录屏</text>
  <rect x="72" y="134" width="1136" height="389" rx="20" fill="#f8f9fc" stroke="#dde2eb"/>
  <svg x="82" y="144" width="1116" height="369" viewBox="0 0 440 228">
    
                
                <rect x="20" y="14" width="400" height="200" rx="12" fill="white" stroke="#dde2eb"/>
                <path d="M20 49H420" stroke="#dde2eb"/>
                <circle cx="39" cy="32" r="5" fill="#5f61e8"/><text x="52" y="36" font-size="13" font-family="sans-serif" fill="#17191f">司南基金</text>
                <text x="266" y="36" font-size="10" font-family="sans-serif" fill="#5f61e8">分析</text><text x="321" y="36" font-size="10" font-family="sans-serif" fill="#626a78">择时</text><text x="374" y="36" font-size="10" font-family="sans-serif" fill="#626a78">回测</text>
                <polygon points="117,72 173,113 152,174 82,174 61,113" fill="#f4f3ff" stroke="#dde2eb"/>
                <polygon points="117,88 155,116 141,158 93,158 79,116" fill="none" stroke="#dde2eb"/>
                <path d="m117 72v75m56-34-56 34m35 27-35-27m-35 27 35-27m-56-34 56 34" stroke="#dde2eb"/>
                <polygon points="117,86 161,116 137,163 89,163 76,118" fill="#5f61e822" stroke="#5f61e8" stroke-width="2"/>
                <text x="206" y="84" font-size="11" font-family="sans-serif" fill="#626a78">多维选基分析</text>
                <rect x="206" y="100" width="189" height="17" rx="5" fill="#f3f5f8"/><rect x="206" y="100" width="147" height="17" rx="5" fill="#dcdcf9"/>
                <rect x="206" y="129" width="189" height="17" rx="5" fill="#f3f5f8"/><rect x="206" y="129" width="119" height="17" rx="5" fill="#dcdcf9"/>
                <rect x="206" y="158" width="189" height="17" rx="5" fill="#f3f5f8"/><rect x="206" y="158" width="162" height="17" rx="5" fill="#dcdcf9"/>
              
    <rect x="56" y="67" width="122" height="115" rx="8" fill="#5f61e8" fill-opacity=".055" stroke="#5f61e8" stroke-width="2" stroke-opacity="0.75"/>
    <circle cx="105.19999999999999" cy="154.95" r="8" fill="#5f61e8" fill-opacity=".12"/>
    <path transform="translate(105.19999999999999,154.95)" d="m0 0 0 18 5-4 4 9 4-2-4-9 6-1z" fill="white" stroke="#5f61e8" stroke-width="1.3" stroke-linejoin="round"/>
  </svg>
  <text x="72" y="565" font-family="sans-serif" font-size="17" font-weight="600" fill="#5f61e8">01 / 03</text>
  <text x="72" y="610" font-family="sans-serif" font-size="33" font-weight="650" fill="#17191f">多维分析</text>
  <text x="72" y="648" font-family="sans-serif" font-size="22" fill="#626a78">通过多维分析，了解基金的不同特征。</text>
  <text x="1208" y="645" text-anchor="end" font-family="sans-serif" font-size="16" fill="#626a78">00 / 15 s</text>
  <rect x="72" y="684" width="368" height="5" rx="2.5" fill="#5f61e8" opacity="1"/><rect x="456" y="684" width="368" height="5" rx="2.5" fill="#dde2eb" opacity="0.65"/><rect x="840" y="684" width="368" height="5" rx="2.5" fill="#dde2eb" opacity="0.65"/>
  <rect x="72" y="684" width="3.786666666666667" height="5" rx="2.5" fill="#5f61e8" opacity=".2"/>
  </svg>