<svg xmlns="http://www.w3.org/2000/svg" width="1280" height="720" viewBox="0 0 1280 720" role="img" aria-labelledby="poster-title">
  <title id="poster-title">ImageLore Demo：整理图片功能示意</title>
  <rect width="1280" height="720" fill="#f3f5f8"/>
  <text x="72" y="46" font-family="sans-serif" font-size="16" font-weight="600" letter-spacing="2" fill="#626a78">AURELIUS / FEATURE DEMO</text>
  <text x="72" y="104" font-family="sans-serif" font-size="42" font-weight="700" fill="#17191f">ImageLore</text>
  <rect x="1084" y="37" width="124" height="38" rx="19" fill="white" stroke="#dde2eb"/>
  <circle cx="1107" cy="56" r="4" fill="#168979"/>
  <text x="1122" y="62" font-family="sans-serif" font-size="17" fill="#626a78">功能示意</text>
  <text x="1208" y="106" text-anchor="end" font-family="sans-serif" font-size="15" fill="#626a78">15 秒 · 非实际操作录屏</text>
  <rect x="72" y="134" width="1136" height="389" rx="20" fill="#f8f9fc" stroke="#dde2eb"/>
  <svg x="82" y="144" width="1116" height="369" viewBox="0 0 580 228">
    
                
                <rect x="28" y="14" width="524" height="200" rx="12" fill="white" stroke="#dde2eb"/>
                <path d="M28 49H552" stroke="#dde2eb"/><text x="45" y="36" font-size="13" font-family="sans-serif" fill="#17191f">ImageLore</text>
                <rect x="346" y="24" width="188" height="17" rx="6" fill="#f3f5f8"/><text x="361" y="36" font-size="10" font-family="sans-serif" fill="#626a78">检索图片与生成记录</text>
                <rect x="43" y="65" width="141" height="104" rx="8" fill="#e2eee9"/><circle cx="148" cy="90" r="12" fill="#f3d4b8"/><path d="m43 154 40-49 31 29 21-16 49 43v8H43Z" fill="#91b7a9"/><path d="m43 156 54-30 45 31 42-20v32H43Z" fill="#477f6c"/>
                <rect x="195" y="65" width="141" height="104" rx="8" fill="#e4e7f7"/><path d="m195 154 45-54 29 25 34-41 33 37v48H195Z" fill="#aaaedd"/><path d="m195 162 50-26 58 22 33-11v22H195Z" fill="#7176b4"/>
                <rect x="349" y="65" width="185" height="126" rx="8" fill="#f3f5f8"/><text x="363" y="84" font-size="11" font-family="sans-serif" fill="#17191f">生成记忆</text>
                <text x="363" y="105" font-size="10" font-family="sans-serif" fill="#626a78">Prompt</text><rect x="363" y="114" width="146" height="5" rx="2" fill="#cbd2df"/><rect x="363" y="126" width="112" height="5" rx="2" fill="#dde2eb"/>
                <text x="363" y="151" font-size="10" font-family="sans-serif" fill="#626a78">版本与谱系</text><path d="M374 172h126" stroke="#91b7a9" stroke-width="2"/><circle cx="374" cy="172" r="5" fill="#168979"/><circle cx="436" cy="172" r="5" fill="#168979"/><circle cx="500" cy="172" r="5" fill="#168979"/>
                <rect x="44" y="180" width="95" height="5" rx="2" fill="#cbd2df"/><rect x="195" y="180" width="106" height="5" rx="2" fill="#cbd2df"/>
              
    <rect x="38" y="60" width="303" height="114" rx="8" fill="#168979" fill-opacity=".055" stroke="#168979" stroke-width="2" stroke-opacity="0.75"/>
    <circle cx="213.89999999999998" cy="147.4" r="8" fill="#168979" fill-opacity=".12"/>
    <path transform="translate(213.89999999999998,147.4)" d="m0 0 0 18 5-4 4 9 4-2-4-9 6-1z" fill="white" stroke="#168979" stroke-width="1.3" stroke-linejoin="round"/>
  </svg>
  <text x="72" y="565" font-family="sans-serif" font-size="17" font-weight="600" fill="#168979">01 / 03</text>
  <text x="72" y="610" font-family="sans-serif" font-size="33" font-weight="650" fill="#17191f">整理图片</text>
  <text x="72" y="648" font-family="sans-serif" font-size="22" fill="#626a78">将图片与生成记录一起整理，建立创作收藏。</text>
  <text x="1208" y="645" text-anchor="end" font-family="sans-serif" font-size="16" fill="#626a78">00 / 15 s</text>
  <rect x="72" y="684" width="368" height="5" rx="2.5" fill="#168979" opacity="1"/><rect x="456" y="684" width="368" height="5" rx="2.5" fill="#dde2eb" opacity="0.65"/><rect x="840" y="684" width="368" height="5" rx="2.5" fill="#dde2eb" opacity="0.65"/>
  <rect x="72" y="684" width="3.786666666666667" height="5" rx="2.5" fill="#168979" opacity=".2"/>
  </svg>